<?xml version="1.0" standalone="no"?>
<!DOCTYPE svg PUBLIC "-//W3C//DTD SVG 1.1//EN" "http://www.w3.org/Graphics/SVG/1.1/DTD/svg11.dtd">
<svg width="54" height="54" viewBox="-27 -27 54 54" xmlns="http://www.w3.org/2000/svg" version="1.1">
<title>OpenSCAD Model</title>
<path d="
M 3.13829,26.4813 L 3.57941,25.5492 L 3.9093,24.6967 L 4.14214,23.9345 L 4.293,23.2716 L 4.37773,22.7153
 L 4.37253,22.6883 L 5.23366,22.5053 L 5.23988,22.5321 L 5.54355,23.0058 L 5.95099,23.55 L 6.47371,24.1516
 L 7.12183,24.7962 L 7.90395,25.4684 L 8.5755,25.2502 L 8.81317,24.2467 L 8.9586,23.3442 L 9.02788,22.5503
 L 9.03763,21.8705 L 9.00485,21.3088 L 8.99414,21.2834 L 9.7984,20.9253 L 9.81007,20.9503 L 10.2056,21.3505
 L 10.7173,21.7981 L 11.3537,22.2779 L 12.1216,22.7737 L 13.0264,23.2685 L 13.6379,22.9155 L 13.6617,21.8845
 L 13.6164,20.9715 L 13.5191,20.1805 L 13.3873,19.5135 L 13.2384,18.9709 L 13.2227,18.9483 L 13.9349,18.4309
 L 13.9515,18.4528 L 14.4216,18.7621 L 15.0152,19.0935 L 15.7374,19.4305 L 16.5916,19.7558 L 17.5795,20.0517
 L 18.1043,19.5792 L 17.9132,18.5658 L 17.679,17.6822 L 17.4194,16.9287 L 17.1518,16.3038 L 16.8934,15.8039
 L 16.8733,15.7851 L 17.4624,15.1309 L 17.4832,15.1489 L 18.0073,15.3537 L 18.6568,15.5544 L 19.4333,15.7339
 L 20.3365,15.8745 L 21.3644,15.9585 L 21.7794,15.3873 L 21.3818,14.4357 L 20.969,13.6201 L 20.5584,12.9371
 L 20.1667,12.3814 L 19.81,11.9462 L 19.7865,11.932 L 20.2267,11.1696 L 20.2508,11.1829 L 20.806,11.2742
 L 21.4831,11.3356 L 22.2799,11.3497 L 23.1926,11.2994 L 24.2155,11.1679 L 24.5027,10.5228 L 23.916,9.67473
 L 23.3426,8.96278 L 22.799,8.38004 L 22.3003,7.91794 L 21.8609,7.56642 L 21.8349,7.55742 L 22.107,6.72015
 L 22.1333,6.72815 L 22.6954,6.70203 L 23.3704,6.62128 L 24.1528,6.46939 L 25.0351,6.23042 L 26.0082,5.88916
 L 26.155,5.19847 L 25.4048,4.49091 L 24.696,3.91373 L 24.043,3.45674 L 23.4592,3.10843 L 22.9563,2.85594
 L 22.929,2.85254 L 23.0211,1.97701 L 23.0485,1.97935 L 23.5929,1.83694 L 24.2364,1.61761 L 24.97,1.30638
 L 25.7834,0.889191 L 26.6643,0.353058 L 26.6643,-0.353043 L 25.7834,-0.889175 L 24.97,-1.30637 L 24.2364,-1.6176
 L 23.5929,-1.83693 L 23.0485,-1.97934 L 23.0211,-1.97699 L 22.929,-2.85254 L 22.9563,-2.85594 L 23.4592,-3.10843
 L 24.043,-3.45674 L 24.696,-3.91373 L 25.4048,-4.49091 L 26.155,-5.19847 L 26.0082,-5.88916 L 25.0351,-6.23042
 L 24.1528,-6.46939 L 23.3704,-6.62128 L 22.6954,-6.70203 L 22.1333,-6.72815 L 22.107,-6.72015 L 21.8349,-7.55742
 L 21.8609,-7.56642 L 22.3003,-7.91794 L 22.799,-8.38004 L 23.3426,-8.96278 L 23.916,-9.67473 L 24.5027,-10.5228
 L 24.2155,-11.1679 L 23.1926,-11.2994 L 22.2799,-11.3497 L 21.4831,-11.3356 L 20.806,-11.2742 L 20.2508,-11.1829
 L 20.2267,-11.1696 L 19.7865,-11.932 L 19.81,-11.9462 L 20.1667,-12.3814 L 20.5584,-12.9371 L 20.969,-13.6201
 L 21.3818,-14.4357 L 21.7794,-15.3873 L 21.3644,-15.9585 L 20.3365,-15.8745 L 19.4333,-15.7339 L 18.6568,-15.5544
 L 18.0073,-15.3537 L 17.4832,-15.1489 L 17.4624,-15.1309 L 16.8733,-15.7851 L 16.8934,-15.8039 L 17.1518,-16.3038
 L 17.4194,-16.9287 L 17.679,-17.6822 L 17.9132,-18.5658 L 18.1043,-19.5792 L 17.5795,-20.0517 L 16.5916,-19.7558
 L 15.7374,-19.4305 L 15.0152,-19.0935 L 14.4216,-18.7621 L 13.9515,-18.4528 L 13.9349,-18.4309 L 13.2227,-18.9483
 L 13.2384,-18.9709 L 13.3873,-19.5135 L 13.5191,-20.1805 L 13.6164,-20.9715 L 13.6617,-21.8845 L 13.6379,-22.9155
 L 13.0264,-23.2685 L 12.1216,-22.7737 L 11.3537,-22.2779 L 10.7173,-21.7981 L 10.2056,-21.3505 L 9.81007,-20.9503
 L 9.7984,-20.9253 L 8.99414,-21.2834 L 9.00485,-21.3088 L 9.03763,-21.8705 L 9.02788,-22.5503 L 8.9586,-23.3442
 L 8.81317,-24.2467 L 8.5755,-25.2502 L 7.90395,-25.4684 L 7.12183,-24.7962 L 6.47371,-24.1516 L 5.95099,-23.55
 L 5.54355,-23.0058 L 5.23988,-22.5321 L 5.23366,-22.5053 L 4.37253,-22.6883 L 4.37773,-22.7153 L 4.293,-23.2716
 L 4.14214,-23.9345 L 3.9093,-24.6967 L 3.57941,-25.5492 L 3.13829,-26.4813 L 2.43605,-26.5551 L 1.81078,-25.7351
 L 1.31085,-24.9698 L 0.924622,-24.2727 L 0.639236,-23.6556 L 0.440704,-23.1291 L 0.440186,-23.1016 L -0.440186,-23.1016
 L -0.440704,-23.1291 L -0.639236,-23.6556 L -0.924622,-24.2727 L -1.31085,-24.9698 L -1.81078,-25.7351 L -2.43605,-26.5551
 L -3.13829,-26.4813 L -3.57941,-25.5492 L -3.9093,-24.6967 L -4.14214,-23.9345 L -4.293,-23.2716 L -4.37773,-22.7153
 L -4.37253,-22.6883 L -5.23366,-22.5053 L -5.23988,-22.5321 L -5.54355,-23.0058 L -5.95099,-23.55 L -6.47371,-24.1516
 L -7.12183,-24.7962 L -7.90395,-25.4684 L -8.5755,-25.2502 L -8.81317,-24.2467 L -8.9586,-23.3442 L -9.02788,-22.5503
 L -9.03763,-21.8705 L -9.00485,-21.3088 L -8.99414,-21.2834 L -9.7984,-20.9253 L -9.81007,-20.9503 L -10.2056,-21.3505
 L -10.7173,-21.7981 L -11.3537,-22.2779 L -12.1216,-22.7737 L -13.0264,-23.2685 L -13.6379,-22.9155 L -13.6617,-21.8845
 L -13.6164,-20.9715 L -13.5191,-20.1805 L -13.3873,-19.5135 L -13.2384,-18.9709 L -13.2227,-18.9483 L -13.9349,-18.4309
 L -13.9515,-18.4528 L -14.4216,-18.7621 L -15.0152,-19.0935 L -15.7374,-19.4305 L -16.5916,-19.7558 L -17.5795,-20.0517
 L -18.1043,-19.5792 L -17.9132,-18.5658 L -17.679,-17.6822 L -17.4194,-16.9287 L -17.1518,-16.3038 L -16.8934,-15.8039
 L -16.8733,-15.7851 L -17.4624,-15.1309 L -17.4832,-15.1489 L -18.0073,-15.3537 L -18.6568,-15.5544 L -19.4333,-15.7339
 L -20.3365,-15.8745 L -21.3644,-15.9585 L -21.7794,-15.3873 L -21.3818,-14.4357 L -20.969,-13.6201 L -20.5584,-12.9371
 L -20.1667,-12.3814 L -19.81,-11.9462 L -19.7865,-11.932 L -20.2267,-11.1696 L -20.2508,-11.1829 L -20.806,-11.2742
 L -21.4831,-11.3356 L -22.2799,-11.3497 L -23.1926,-11.2994 L -24.2155,-11.1679 L -24.5027,-10.5228 L -23.916,-9.67473
 L -23.3426,-8.96278 L -22.799,-8.38004 L -22.3003,-7.91794 L -21.8609,-7.56642 L -21.8349,-7.55742 L -22.107,-6.72015
 L -22.1333,-6.72815 L -22.6954,-6.70203 L -23.3704,-6.62128 L -24.1528,-6.46939 L -25.0351,-6.23042 L -26.0082,-5.88916
 L -26.155,-5.19847 L -25.4048,-4.49091 L -24.696,-3.91373 L -24.043,-3.45674 L -23.4592,-3.10843 L -22.9563,-2.85594
 L -22.929,-2.85254 L -23.0211,-1.97701 L -23.0485,-1.97935 L -23.5929,-1.83694 L -24.2364,-1.61761 L -24.97,-1.30638
 L -25.7834,-0.889191 L -26.6643,-0.353058 L -26.6643,0.353043 L -25.7834,0.889175 L -24.97,1.30637 L -24.2364,1.6176
 L -23.5929,1.83693 L -23.0485,1.97934 L -23.0211,1.97699 L -22.929,2.85254 L -22.9563,2.85594 L -23.4592,3.10843
 L -24.043,3.45674 L -24.696,3.91373 L -25.4048,4.49091 L -26.155,5.19847 L -26.0082,5.88916 L -25.0351,6.23042
 L -24.1528,6.46939 L -23.3704,6.62128 L -22.6954,6.70203 L -22.1333,6.72815 L -22.107,6.72015 L -21.8349,7.55742
 L -21.8609,7.56642 L -22.3003,7.91794 L -22.799,8.38004 L -23.3426,8.96278 L -23.916,9.67473 L -24.5027,10.5228
 L -24.2155,11.1679 L -23.1926,11.2994 L -22.2799,11.3497 L -21.4831,11.3356 L -20.806,11.2742 L -20.2508,11.1829
 L -20.2267,11.1696 L -19.7865,11.932 L -19.81,11.9462 L -20.1667,12.3814 L -20.5584,12.9371 L -20.969,13.6201
 L -21.3818,14.4357 L -21.7794,15.3873 L -21.3644,15.9585 L -20.3365,15.8745 L -19.4333,15.7339 L -18.6568,15.5544
 L -18.0073,15.3537 L -17.4832,15.1489 L -17.4624,15.1309 L -16.8733,15.7851 L -16.8934,15.8039 L -17.1518,16.3038
 L -17.4194,16.9287 L -17.679,17.6822 L -17.9132,18.5658 L -18.1043,19.5792 L -17.5795,20.0517 L -16.5916,19.7558
 L -15.7374,19.4305 L -15.0152,19.0935 L -14.4216,18.7621 L -13.9515,18.4528 L -13.9349,18.4309 L -13.2227,18.9483
 L -13.2384,18.9709 L -13.3873,19.5135 L -13.5191,20.1805 L -13.6164,20.9715 L -13.6617,21.8845 L -13.6379,22.9155
 L -13.0264,23.2685 L -12.1216,22.7737 L -11.3537,22.2779 L -10.7173,21.7981 L -10.2056,21.3505 L -9.81007,20.9503
 L -9.7984,20.9253 L -8.99414,21.2834 L -9.00485,21.3088 L -9.03763,21.8705 L -9.02788,22.5503 L -8.9586,23.3442
 L -8.81317,24.2467 L -8.5755,25.2502 L -7.90395,25.4684 L -7.12183,24.7962 L -6.47371,24.1516 L -5.95099,23.55
 L -5.54355,23.0058 L -5.23988,22.5321 L -5.23366,22.5053 L -4.37253,22.6883 L -4.37773,22.7153 L -4.293,23.2716
 L -4.14214,23.9345 L -3.9093,24.6967 L -3.57941,25.5492 L -3.13829,26.4813 L -2.43605,26.5551 L -1.81078,25.7351
 L -1.31085,24.9698 L -0.924622,24.2727 L -0.639236,23.6556 L -0.440704,23.1291 L -0.440186,23.1016 L 0.440186,23.1016
 L 0.440704,23.1291 L 0.639236,23.6556 L 0.924622,24.2727 L 1.31085,24.9698 L 1.81078,25.7351 L 2.43605,26.5551
 z
M -0.25116,3.9921 L -0.501328,3.96844 L -0.749512,3.92914 L -0.994751,3.87433 L -1.23605,3.80421 L -1.47249,3.7191
 L -1.70311,3.61929 L -1.927,3.50522 L -2.1433,3.3773 L -2.35114,3.23605 L -2.54968,3.08205 L -2.73817,2.91586
 L -2.91586,2.73817 L -3.08205,2.54968 L -3.23605,2.35114 L -3.3773,2.1433 L -3.50522,1.927 L -3.61929,1.70311
 L -3.7191,1.47249 L -3.80421,1.23605 L -3.87433,0.994751 L -3.92914,0.749512 L -3.96844,0.501328 L -3.9921,0.25116
 L -4,-0 L -3.9921,-0.25116 L -3.96844,-0.501328 L -3.92914,-0.749512 L -3.87433,-0.994751 L -3.80421,-1.23605
 L -3.7191,-1.47249 L -3.61929,-1.70311 L -3.50522,-1.927 L -3.3773,-2.1433 L -3.23605,-2.35114 L -3.08205,-2.54968
 L -2.91586,-2.73817 L -2.73817,-2.91586 L -2.54968,-3.08205 L -2.35114,-3.23605 L -2.1433,-3.3773 L -2,-3.46205
 L -2,-5.5 L 2,-5.5 L 2,-3.46205 L 2.1433,-3.3773 L 2.35114,-3.23605 L 2.54968,-3.08205
 L 2.73817,-2.91586 L 2.91586,-2.73817 L 3.08205,-2.54968 L 3.23605,-2.35114 L 3.3773,-2.1433 L 3.50522,-1.927
 L 3.61929,-1.70311 L 3.7191,-1.47249 L 3.80421,-1.23605 L 3.87433,-0.994751 L 3.92914,-0.749512 L 3.96844,-0.501328
 L 3.9921,-0.25116 L 4,-0 L 3.9921,0.25116 L 3.96844,0.501328 L 3.92914,0.749512 L 3.87433,0.994751
 L 3.80421,1.23605 L 3.7191,1.47249 L 3.61929,1.70311 L 3.50522,1.927 L 3.3773,2.1433 L 3.23605,2.35114
 L 3.08205,2.54968 L 2.91586,2.73817 L 2.73817,2.91586 L 2.54968,3.08205 L 2.35114,3.23605 L 2.1433,3.3773
 L 1.927,3.50522 L 1.70311,3.61929 L 1.47249,3.7191 L 1.23605,3.80421 L 0.994751,3.87433 L 0.749512,3.92914
 L 0.501328,3.96844 L 0.25116,3.9921 L 0,4 z
" stroke="black" fill="lightgray" stroke-width="0.5"/></svg>
