<?xml version="1.0" encoding="UTF-8" standalone="no"?>
<svg
   xmlns:dc="http://purl.org/dc/elements/1.1/"
   xmlns:cc="http://creativecommons.org/ns#"
   xmlns:rdf="http://www.w3.org/1999/02/22-rdf-syntax-ns#"
   xmlns:svg="http://www.w3.org/2000/svg"
   xmlns="http://www.w3.org/2000/svg"
   xmlns:sodipodi="http://sodipodi.sourceforge.net/DTD/sodipodi-0.dtd"
   xmlns:inkscape="http://www.inkscape.org/namespaces/inkscape"
   width="53.828602"
   height="53.636833"
   viewBox="-27 -27 53.828602 53.636833"
   version="1.1"
   id="svg4218"
   inkscape:version="0.91 r13725"
   sodipodi:docname="gearok.svg"
   inkscape:export-filename="/media/marcell/carbon/Dropbox/3dtest/mill/artwork/gearok.png"
   inkscape:export-xdpi="180"
   inkscape:export-ydpi="180">
  <metadata
     id="metadata4228">
    <rdf:RDF>
      <cc:Work
         rdf:about="">
        <dc:format>image/svg+xml</dc:format>
        <dc:type
           rdf:resource="http://purl.org/dc/dcmitype/StillImage" />
        <dc:title>OpenSCAD Model</dc:title>
      </cc:Work>
    </rdf:RDF>
  </metadata>
  <defs
     id="defs4226" />
  <sodipodi:namedview
     pagecolor="#ffffff"
     bordercolor="#666666"
     borderopacity="1"
     objecttolerance="10"
     gridtolerance="10"
     guidetolerance="10"
     inkscape:pageopacity="0"
     inkscape:pageshadow="2"
     inkscape:window-width="1215"
     inkscape:window-height="1000"
     id="namedview4224"
     showgrid="false"
     fit-margin-top="0"
     fit-margin-left="0"
     fit-margin-right="0"
     fit-margin-bottom="0"
     inkscape:zoom="13.796296"
     inkscape:cx="26.9143"
     inkscape:cy="23.919087"
     inkscape:window-x="65"
     inkscape:window-y="24"
     inkscape:window-maximized="1"
     inkscape:current-layer="svg4218" />
  <title
     id="title4220">OpenSCAD Model</title>
  <path
     d="m 3.05259,26.299716 0.44112,-0.9321 0.32989,-0.8525 0.23284,-0.7622 0.15086,-0.6629 0.08473,-0.5563 -0.0052,-0.027 0.86113,-0.183 0.00622,0.0268 0.30367,0.4737 0.40744,0.5442 0.52272,0.6016 0.64812,0.6446 0.78212,0.6722 0.67155,-0.2182 0.23767,-1.0035 0.14543,-0.9025 0.06928,-0.7939 0.00975,-0.6798 -0.03278,-0.5617 -0.01071,-0.0254 0.80426,-0.3581 0.01167,0.025 0.39553,0.4002 0.5117,0.4476 0.6364,0.4798 0.7679,0.4958 0.9048,0.4948 0.6115,-0.353 0.0238,-1.031 -0.0453,-0.913 -0.0973,-0.791 -0.1318,-0.667 -0.1489,-0.5426 -0.0157,-0.0226 0.7122,-0.5174 0.0166,0.0219 0.4701,0.3093 0.5936,0.3314 0.7222,0.337 0.8542,0.3253 0.9879,0.2959 0.5248,-0.4725 -0.1911,-1.0134 -0.2342,-0.8836 -0.2596,-0.7535 -0.2676,-0.6249 -0.2584,-0.4999 -0.0201,-0.0188 0.5891,-0.6542 0.0208,0.018 0.5241,0.2048 0.6495,0.2007 0.7765,0.1795 0.9032,0.1406 1.0279,0.084 0.415,-0.5712 -0.3976,-0.9516 -0.4128,-0.8156 -0.4106,-0.683 -0.3917,-0.5557 -0.3567,-0.4352 -0.0235,-0.0142 0.4402,-0.7624 0.0241,0.0133 0.5552,0.0913 0.6771,0.0614 0.7968,0.0141 0.9127,-0.0503 1.0229,-0.1315 0.2872,-0.6451 -0.5867,-0.8480703 -0.5734,-0.71195 -0.5436,-0.58274 -0.4987,-0.4621 -0.4394,-0.35152 -0.026,-0.009 0.2721,-0.83727 0.0263,0.008 0.5621,-0.02612 0.675,-0.08075 0.7824,-0.15189 0.8823,-0.23897 0.9731,-0.34126 0.1468,-0.69069 -0.7502,-0.70756 -0.7088,-0.57718 -0.653,-0.45699 -0.5838,-0.34831 -0.5029,-0.25249 -0.0273,-0.0034 0.0921,-0.87553 0.0274,0.00234 0.5444,-0.14241 0.6435,-0.21933 0.7336,-0.31123 0.8134,-0.41718904 0.8809,-0.536133 0,-0.706101 -0.8809,-0.53613196 -0.8134,-0.417195 -0.7336,-0.31123 -0.6435,-0.21933 -0.5444,-0.14241 -0.0274,0.00235 -0.0921,-0.87555 0.0273,-0.0034 0.5029,-0.25249 0.5838,-0.34831 0.653,-0.45699 0.7088,-0.57718 0.7502,-0.70756 -0.1468,-0.69069 -0.9731,-0.34126 -0.8823,-0.23897 -0.7824,-0.15189 -0.675,-0.08075 -0.5621,-0.02612 -0.0263,0.008 -0.2721,-0.83727 0.026,-0.009 0.4394,-0.35152 0.4987,-0.4621 0.5436,-0.58274 0.5734,-0.71195 0.5867,-0.8480697 -0.2872,-0.6451 -1.0229,-0.1315 -0.9127,-0.0503 -0.7968,0.0141 -0.6771,0.0614 -0.5552,0.0913 -0.0241,0.0133 -0.4402,-0.7624 0.0235,-0.0142 0.3567,-0.4352 0.3917,-0.5557 0.4106,-0.683 0.4128,-0.8156 0.3976,-0.9516 -0.415,-0.5712 -1.0279,0.084 -0.9032,0.1406 -0.7765,0.1795 -0.6495,0.2007 -0.5241,0.2048 -0.0208,0.018 -0.5891,-0.6542 0.0201,-0.0188 0.2584,-0.4999 0.2676,-0.6249 0.2596,-0.7535 0.2342,-0.8836 0.1911,-1.0134 -0.5248,-0.4725 -0.9879,0.2959 -0.8542,0.3253 -0.7222,0.337 -0.5936,0.3314 -0.4701,0.3093 -0.0166,0.0219 -0.7122,-0.5174 0.0157,-0.0226 0.1489,-0.5426 0.1318,-0.667 0.0973,-0.791 0.0453,-0.913 -0.0238,-1.031 -0.6115,-0.353 -0.9048,0.4948 -0.7679,0.4958 -0.6364,0.4798 -0.5117,0.4476 -0.39553,0.4002 -0.01167,0.025 -0.80426,-0.3581 0.01071,-0.0254 0.03278,-0.5617 -0.00975,-0.6798 -0.06928,-0.7939 -0.14543,-0.9025 -0.23767,-1.0035 -0.67155,-0.2182 -0.78212,0.6722 -0.64812,0.6446 -0.52272,0.6016 -0.40744,0.5442 -0.30367,0.4737 -0.00622,0.0268 -0.86113,-0.183 0.0052,-0.027 -0.08473,-0.5563 -0.15086,-0.6629 -0.23284,-0.7622 -0.32989,-0.8525 -0.44112,-0.9321 -0.70224,-0.0738 -0.62527,0.82 -0.49993,0.7653 -0.386228,0.6971 -0.285386,0.6171 -0.198532,0.5265 -5.18e-4,0.0275 -0.880372,0 -5.18e-4,-0.0275 -0.198532,-0.5265 -0.285386,-0.6171 -0.386228,-0.6971 -0.49993,-0.7653 -0.62527,-0.82 -0.70224,0.0738 -0.44112,0.9321 -0.32989,0.8525 -0.23284,0.7622 -0.15086,0.6629 -0.08473,0.5563 0.0052,0.027 -0.86113,0.183 -0.00622,-0.0268 -0.30367,-0.4737 -0.40744,-0.5442 -0.52272,-0.6016 -0.64812,-0.6446 -0.78212,-0.6722 -0.67155,0.2182 -0.23767,1.0035 -0.14543,0.9025 -0.06928,0.7939 -0.00975,0.6798 0.03278,0.5617 0.01071,0.0254 -0.80426,0.3581 -0.01167,-0.025 -0.39553,-0.4002 -0.5117,-0.4476 -0.6364,-0.4798 -0.7679,-0.4958 -0.9048,-0.4948 -0.6115,0.353 -0.0238,1.031 0.0453,0.913 0.0973,0.791 0.1318,0.667 0.1489,0.5426 0.0157,0.0226 -0.7122,0.5174 -0.0166,-0.0219 -0.4701,-0.3093 -0.5936,-0.3314 -0.7222,-0.337 -0.8542,-0.3253 -0.9879,-0.2959 -0.5248,0.4725 0.1911,1.0134 0.2342,0.8836 0.2596,0.7535 0.2676,0.6249 0.2584,0.4999 0.0201,0.0188 -0.5891,0.6542 -0.0208,-0.018 -0.5241,-0.2048 -0.6495,-0.2007 -0.7765,-0.1795 -0.9032,-0.1406 -1.0279,-0.084 -0.415,0.5712 0.3976,0.9516 0.4128,0.8156 0.4106,0.683 0.3917,0.5557 0.3567,0.4352 0.0235,0.0142 -0.4402,0.7624 -0.0241,-0.0133 -0.5552,-0.0913 -0.6771,-0.0614 -0.7968,-0.0141 -0.9127,0.0503 -1.0229,0.1315 -0.2872,0.6451 0.5867,0.8480697 0.5734,0.71195 0.5436,0.58274 0.4987,0.4621 0.4394,0.35152 0.026,0.009 -0.2721,0.83727 -0.0263,-0.008 -0.5621,0.02612 -0.675,0.08075 -0.7824,0.15189 -0.8823,0.23897 -0.9731,0.34126 -0.1468,0.69069 0.7502,0.70756 0.7088,0.57718 0.653,0.45699 0.5838,0.34831 0.5029,0.25249 0.0273,0.0034 -0.0921,0.87553 -0.0274,-0.00234 -0.5444,0.14241 -0.6435,0.21933 -0.7336,0.31123 -0.8134,0.417189 -0.8809,0.53613296 0,0.706101 0.8809,0.536132 0.8134,0.41719504 0.7336,0.31123 0.6435,0.21933 0.5444,0.14241 0.0274,-0.00235 0.0921,0.87555 -0.0273,0.0034 -0.5029,0.25249 -0.5838,0.34831 -0.653,0.45699 -0.7088,0.57718 -0.7502,0.70756 0.1468,0.69069 0.9731,0.34126 0.8823,0.23897 0.7824,0.15189 0.675,0.08075 0.5621,0.02612 0.0263,-0.008 0.2721,0.83727 -0.026,0.009 -0.4394,0.35152 -0.4987,0.4621 -0.5436,0.58274 -0.5734,0.71195 -0.5867,0.8480703 0.2872,0.6451 1.0229,0.1315 0.9127,0.0503 0.7968,-0.0141 0.6771,-0.0614 0.5552,-0.0913 0.0241,-0.0133 0.4402,0.7624 -0.0235,0.0142 -0.3567,0.4352 -0.3917,0.5557 -0.4106,0.683 -0.4128,0.8156 -0.3976,0.9516 0.415,0.5712 1.0279,-0.084 0.9032,-0.1406 0.7765,-0.1795 0.6495,-0.2007 0.5241,-0.2048 0.0208,-0.018 0.5891,0.6542 -0.0201,0.0188 -0.2584,0.4999 -0.2676,0.6249 -0.2596,0.7535 -0.2342,0.8836 -0.1911,1.0134 0.5248,0.4725 0.9879,-0.2959 0.8542,-0.3253 0.7222,-0.337 0.5936,-0.3314 0.4701,-0.3093 0.0166,-0.0219 0.7122,0.5174 -0.0157,0.0226 -0.1489,0.5426 -0.1318,0.667 -0.0973,0.791 -0.0453,0.913 0.0238,1.031 0.6115,0.353 0.9048,-0.4948 0.7679,-0.4958 0.6364,-0.4798 0.5117,-0.4476 0.39553,-0.4002 0.01167,-0.025 0.80426,0.3581 -0.01071,0.0254 -0.03278,0.5617 0.00975,0.6798 0.06928,0.7939 0.14543,0.9025 0.23767,1.0035 0.67155,0.2182 0.78212,-0.6722 0.64812,-0.6446 0.52272,-0.6016 0.40744,-0.5442 0.30367,-0.4737 0.00622,-0.0268 0.86113,0.183 -0.0052,0.027 0.08473,0.5563 0.15086,0.6629 0.23284,0.7622 0.32989,0.8525 0.44112,0.9321 0.70224,0.0738 0.62527,-0.82 0.49993,-0.7653 0.386228,-0.6971 0.285386,-0.6171 0.198532,-0.5265 5.18e-4,-0.0275 0.880372,0 5.18e-4,0.0275 0.198532,0.5265 0.285386,0.6171 0.386228,0.6971 0.49993,0.7653 0.62527,0.82 z m -3.38945,-22.4892003 -0.250168,-0.02366 -0.248184,-0.0393 -0.245239,-0.05481 -0.241299,-0.07012 -0.23644,-0.08511 -0.23062,-0.09981 -0.22389,-0.11407 -0.2163,-0.12792 -0.20784,-0.14125 -0.19854,-0.154 -0.18849,-0.16619 -0.17769,-0.17769 -0.16619,-0.18849 -0.154,-0.19854 -0.14125,-0.20784 -0.12792,-0.2163 -0.11407,-0.22389 -0.09981,-0.23062 -0.08511,-0.23644 -0.07012,-0.24129904 -0.05481,-0.245239 -0.0393,-0.248184 -0.02366,-0.250168 -0.0079,-0.25116 0.0079,-0.25116 0.02366,-0.250168 0.0393,-0.248184 0.05481,-0.24523896 0.07012,-0.241299 0.08511,-0.23644 0.09981,-0.23062 0.11407,-0.22389 0.12792,-0.2163 0.14125,-0.20784 0.154,-0.19854 0.16619,-0.18849 0.17769,-0.17769 0.18849,-0.16619 0.19854,-0.154 0.20784,-0.14125 0.1433,-0.08475 0,-2.03795 4,0 0,2.03795 0.1433,0.08475 0.20784,0.14125 0.19854,0.154 0.18849,0.16619 0.17769,0.17769 0.16619,0.18849 0.154,0.19854 0.14125,0.20784 0.12792,0.2163 0.11407,0.22389 0.09981,0.23062 0.08511,0.23644 0.07012,0.241299 0.05481,0.24523896 0.0393,0.248184 0.02366,0.250168 0.0079,0.25116 -0.0079,0.25116 -0.02366,0.250168 -0.0393,0.248184 -0.05481,0.245239 -0.07012,0.24129904 -0.08511,0.23644 -0.09981,0.23062 -0.11407,0.22389 -0.12792,0.2163 -0.14125,0.20784 -0.154,0.19854 -0.16619,0.18849 -0.17769,0.17769 -0.18849,0.16619 -0.19854,0.154 -0.20784,0.14125 -0.2163,0.12792 -0.22389,0.11407 -0.23062,0.09981 -0.23644,0.08511 -0.241299,0.07012 -0.245239,0.05481 -0.248184,0.0393 -0.250168,0.02366 -0.25116,0.0079 z"
     id="path4222"
     inkscape:export-xdpi="179.89999"
     inkscape:export-ydpi="179.89999"
     inkscape:connector-curvature="0"
     style="fill:#d3d3d3;stroke:#000000;stroke-width:0.5" />
</svg>
